<?xml version="1.0" encoding="utf-8"?>
<!-- Generator: Adobe Illustrator 19.0.0, SVG Export Plug-In . SVG Version: 6.00 Build 0)  -->
<svg  fill="#a3a3a3" version="1.1" id="Layer_1" xmlns="http://www.w3.org/2000/svg" xmlns:xlink="http://www.w3.org/1999/xlink" x="0px" y="0px"
	 viewBox="0 0 64 64" style="enable-background:new 0 0 64 64;" xml:space="preserve">
<style type="text/css">
	.st0{font-family:'MyriadPro-Regular';}
	.st1{font-size:19.9476px;}
</style>
<g>
	<path d="M58.6,30.6c0,1,0,2.1,0,3.1c0,0.1-0.1,0.3-0.1,0.4c-0.3,3.7-1.2,7.2-3,10.4c-4.1,7.4-10.4,12-18.7,13.6
		c-1,0.2-2,0.3-3.1,0.4c-1,0-2.1,0-3.1,0c-0.1,0-0.3-0.1-0.4-0.1c-3.7-0.3-7.2-1.2-10.5-3C12.3,51.3,7.7,45,6.1,36.7
		c-0.2-1-0.3-2-0.4-3.1c0-1,0-2.1,0-3.1c0-0.1,0.1-0.3,0.1-0.4c0.3-3.7,1.2-7.2,3-10.4c4.1-7.4,10.4-12,18.7-13.6
		c1-0.2,2-0.3,3.1-0.4c1,0,2.1,0,3.1,0c0.1,0,0.3,0.1,0.4,0.1c3.7,0.3,7.2,1.2,10.5,3c7.4,4.1,12,10.4,13.6,18.7
		C58.3,28.5,58.4,29.5,58.6,30.6z M32.1,7.3C18.4,7.3,7.3,18.5,7.3,32.2S18.4,57,32.1,57s24.8-11.1,24.8-24.8
		C56.9,18.4,45.7,7.3,32.1,7.3z"/>
	<path d="M23.6,43.5c0.1-0.2,0.2-0.4,0.3-0.6c4.6-7.2,9.3-14.5,13.9-21.7c0.2-0.3,0.4-0.5,0.9-0.5c0.7,0,1.3,0,2,0
		c-0.1,0.1-0.1,0.2-0.1,0.3c-4.7,7.4-9.5,14.7-14.2,22.1c-0.1,0.1-0.2,0.3-0.4,0.3C25.2,43.5,24.4,43.5,23.6,43.5z"/>
	<text transform="matrix(1 0 0 1 19.6145 33.4866)" class="st0 st1">0</text>
	<text transform="matrix(1 0 0 1 33.6974 45.2026)" class="st0 st1">0</text>
</g>
</svg>
